<svg><metadata>Created by FontForge 20120731 at Tue Nov 28 20:16:50 2017 By www-data Copyright \(c\) 2017 by Jacob Debono.</metadata><defs><font id="Minecraft-Regular" horiz-adv-x="600"><font-face x-height="500" ascent="800" bbox="0 -200 600 700" cap-height="700" descent="-200" font-family="Minecraft" font-stretch="normal" font-weight="400" panose-1="0 0 5 0 0 0 0 0 0 0" underline-position="-50" underline-thickness="50" unicode-range="U+0020-2022" units-per-em="1000"/><glyph d="M100 600v100h300v-100h-300zM400 600h100v-600h-100v400h-300v-400h-100v600h100v-100h300v100z" glyph-name="A" unicode="A"/><glyph d="M0 700h100v-100h-100v100zM500 700v-100h-100v100h100zM400 600v-100h-300v100h300zM400 400v100h100v-500h-100v300h-300v-300h-100v500h100v-100h300z" glyph-name="Adieresis" unicode="Ä"/><glyph d="M300 700v-100h-100v100h100zM100 400v100h300v-100h-300zM400 400h100v-400h-100v200h-300v-200h-100v400h100v-100h300v100z" glyph-name="Aring" unicode="Å"/><glyph d="M300 600v-100h100v-100h-100v-300h200v-100h-300v400h-100v-400h-100v600h100v-100h100v100h-100v100h400v-100h-200z" glyph-name="AE" unicode="Æ"/><glyph d="M400 500v-100h-300v-300h300v-100h-400v700h400v-100h-300v-100h300zM500 500h-100v100h100v-100zM400 400h100v-300h-100v300z" glyph-name="B" unicode="B"/><glyph d="M400 700v-100h-300v100h300zM0 600h100v-500h-100v500zM500 500h-100v100h100v-100zM500 200v-100h-100v100h100zM100 0v100h300v-100h-300z" glyph-name="C" unicode="C"/><glyph d="M400 700v-100h-300v100h300zM0 600h100v-500h-100v500zM500 500h-100v100h100v-100zM500 200v-100h-100v100h100zM100 0v100h300v-100h-300zM500 -100h-100v100h100v-100zM200 -100h200v-100h-200v100z" glyph-name="Ccedilla" unicode="Ç"/><glyph d="M400 100v-100h-400v700h400v-100h-300v-500h300zM400 600h100v-500h-100v500z" glyph-name="D" unicode="D"/><glyph d="M100 600v-100h200v-100h-200v-300h400v-100h-500v700h500v-100h-400z" glyph-name="E" unicode="E"/><glyph d="M500 700v-100h-400v-100h200v-100h-200v-400h-100v700h500z" glyph-name="F" unicode="F"/><glyph d="M100 600v100h400v-100h-400zM100 100h-100v500h100v-500zM500 100h-100v300h-100v100h200v-400zM100 0v100h300v-100h-300z" glyph-name="G" unicode="G"/><glyph d="M400 700h100v-700h-100v400h-300v-400h-100v700h100v-200h300v200z" glyph-name="H" unicode="H"/><glyph d="M200 100h100v-100h-300v100h100v500h-100v100h300v-100h-100v-500z" glyph-name="I" horiz-adv-x="400" unicode="I"/><glyph d="M400 700h100v-600h-100v600zM0 200h100v-100h-100v100zM400 100v-100h-300v100h300z" glyph-name="J" unicode="J"/><glyph d="M300 500v-100h-200v-400h-100v700h100v-200h200zM500 700v-100h-100v100h100zM400 600v-100h-100v100h100zM400 300h-100v100h100v-100zM400 300h100v-300h-100v300z" glyph-name="K" unicode="K"/><glyph d="M500 100v-100h-500v700h100v-600h400z" glyph-name="L" unicode="L"/><glyph d="M100 600h100v-100h-100v-500h-100v700h100v-100zM400 700h100v-700h-100v500h-100v100h100v100zM200 400v100h100v-100h-100z" glyph-name="M" unicode="M"/><glyph d="M100 600h100v-100h-100v-500h-100v700h100v-100zM400 700h100v-700h-100v300h-100v100h100v300zM200 500h100v-100h-100v100z" glyph-name="N" unicode="N"/><glyph d="M500 700v-100h-500v100h500zM100 400h100v-100h-100v-300h-100v500h100v-100zM400 500h100v-500h-100v100h-100v100h100v300zM200 300h100v-100h-100v100z" glyph-name="Ntilde" unicode="Ñ"/><glyph d="M100 600v100h300v-100h-300zM100 100h-100v500h100v-500zM400 600h100v-500h-100v500zM400 100v-100h-300v100h300z" glyph-name="O" unicode="O"/><glyph d="M100 600v100h300v-100h-300zM200 200h-100v-100h-100v500h100v-300h100v-100zM400 600h100v-500h-100v300h-100v100h100v100zM200 300v100h100v-100h-100zM400 100v-100h-300v100h300z" glyph-name="Oslash" unicode="Ø"/><glyph d="M400 500v-100h-300v-400h-100v700h400v-100h-300v-100h300zM400 600h100v-100h-100v100z" glyph-name="P" unicode="P"/><glyph d="M100 600v100h300v-100h-300zM100 100h-100v500h100v-500zM400 600h100v-400h-100v400zM300 100v100h100v-100h-100zM100 100h200v-100h-200v100zM500 0h-100v100h100v-100z" glyph-name="Q" unicode="Q"/><glyph d="M400 500v-100h-300v-400h-100v700h400v-100h-300v-100h300zM500 500h-100v100h100v-100zM400 400h100v-400h-100v400z" glyph-name="R" unicode="R"/><glyph d="M100 600v100h400v-100h-400zM0 600h100v-100h-100v100zM100 400v100h300v-100h-300zM400 400h100v-300h-100v300zM0 200h100v-100h-100v100zM400 100v-100h-300v100h300z" glyph-name="S" unicode="S"/><glyph d="M500 700v-100h-200v-600h-100v600h-200v100h500z" glyph-name="T" unicode="T"/><glyph d="M100 100h-100v600h100v-600zM400 700h100v-600h-100v600zM400 100v-100h-300v100h300z" glyph-name="U" unicode="U"/><glyph d="M100 700v-100h-100v100h100zM400 700h100v-100h-100v100zM100 100h-100v400h100v-400zM400 500h100v-400h-100v400zM400 100v-100h-300v100h300z" glyph-name="Udieresis" unicode="Ü"/><glyph d="M100 300h-100v400h100v-400zM400 700h100v-400h-100v400zM200 300v-200h-100v200h100zM300 300h100v-200h-100v200zM200 0v100h100v-100h-100z" glyph-name="V" unicode="V"/><glyph d="M100 200h100v-100h-100v-100h-100v700h100v-500zM400 700h100v-700h-100v100h-100v100h100v500zM200 300h100v-100h-100v100z" glyph-name="W" unicode="W"/><glyph d="M0 700h100v-100h-100v100zM500 700v-100h-100v100h100zM100 600h100v-100h-100v100zM400 600v-100h-100v100h100zM200 500h100v-100h-100v100zM100 300v100h100v-100h-100zM400 300h-100v100h100v-100zM0 300h100v-300h-100v300zM400 300h100v-300h-100v300z" glyph-name="X" unicode="X"/><glyph d="M0 700h100v-100h-100v100zM400 700h100v-100h-100v100zM100 600h100v-100h-100v100zM300 500v100h100v-100h-100zM200 500h100v-500h-100v500z" glyph-name="Y" unicode="Y"/><glyph d="M500 700v-200h-100v100h-400v100h500zM300 400v100h100v-100h-100zM200 300v100h100v-100h-100zM100 200v100h100v-100h-100zM0 200h100v-100h400v-100h-500v200z" glyph-name="Z" unicode="Z"/><glyph d="M400 500v-100h-300v100h300zM400 400h100v-400h-400v100h300v100h-300v100h300v100zM0 200h100v-100h-100v100z" glyph-name="a" unicode="a"/><glyph d="M500 700v-100h-200v100h200zM400 500v-100h-300v100h300zM400 300v100h100v-400h-400v100h300v100h-300v100h300zM0 200h100v-100h-100v100z" glyph-name="aacute" unicode="á"/><glyph d="M100 600v100h300v-100h-300zM0 600h100v-100h-100v100zM500 500h-100v100h100v-100zM400 500v-100h-300v100h300zM400 300v100h100v-400h-400v100h300v100h-300v100h300zM0 200h100v-100h-100v100z" glyph-name="acircumflex" unicode="â"/><glyph d="M200 600h-200v100h200v-100zM400 500v-100h-300v100h300zM400 400h100v-400h-400v100h300v100h-300v100h300v100zM0 200h100v-100h-100v100z" glyph-name="agrave" unicode="à"/><glyph d="M300 700v-100h-100v100h100zM400 500v-100h-300v100h300zM400 400h100v-400h-400v100h300v100h-300v100h300v100zM0 200h100v-100h-100v100z" glyph-name="aring" unicode="å"/><glyph d="M100 500h100v-100h-100v100zM400 500v-100h-100v100h100zM400 200h-100v-100h200v-100h-400v100h100v100h-100v100h100v100h100v-100h100v-100zM500 300h-100v100h100v-100zM0 200h100v-100h-100v100z" glyph-name="ae" unicode="æ"/><glyph d="M400 100v-100h-400v700h100v-300h100v-100h-100v-200h300zM400 400h-200v100h200v-100zM400 400h100v-300h-100v300z" glyph-name="b" unicode="b"/><glyph d="M400 500v-100h-300v100h300zM0 400h100v-300h-100v300zM500 300h-100v100h100v-100zM500 200v-100h-100v100h100zM100 0v100h300v-100h-300z" glyph-name="c" unicode="c"/><glyph d="M400 500v-100h-300v100h300zM0 400h100v-300h-100v300zM500 300h-100v100h100v-100zM500 200v-100h-100v100h100zM100 0v100h300v-100h-300zM500 -100h-100v100h100v-100zM200 -100h200v-100h-200v100z" glyph-name="ccedilla" unicode="ç"/><glyph d="M400 700h100v-700h-400v100h300v200h-100v100h100v300zM300 400h-200v100h200v-100zM100 100h-100v300h100v-300z" glyph-name="d" unicode="d"/><glyph d="M100 400v100h300v-100h-300zM400 400h100v-200h-400v-100h-100v300h100v-100h300v100zM100 0v100h400v-100h-400z" glyph-name="e" unicode="e"/><glyph d="M100 600v100h300v-100h-300zM0 600h100v-100h-100v100zM500 500h-100v100h100v-100zM400 500v-100h-300v100h300zM400 300v100h100v-200h-400v-100h-100v300h100v-100h300zM100 0v100h400v-100h-400z" glyph-name="ecircumflex" unicode="ê"/><glyph d="M200 700v-100h-100v100h100zM400 700v-100h-100v100h100zM100 400v100h300v-100h-300zM400 400h100v-200h-400v-100h-100v300h100v-100h300v100zM100 0v100h400v-100h-400z" glyph-name="edieresis" unicode="ë"/><glyph d="M400 600h-200v100h200v-100zM100 600h100v-100h200v-100h-200v-400h-100v400h-100v100h100v100z" glyph-name="f" horiz-adv-x="500" unicode="f"/><glyph d="M500 500v-500h-100v100h-300v100h300v200h-300v100h400zM100 400v-200h-100v200h100zM400 0v-100h-400v100h400z" glyph-name="g" unicode="g"/><glyph d="M100 400h100v-100h-100v-300h-100v700h100v-300zM400 500v-100h-200v100h200zM400 400h100v-400h-100v400z" glyph-name="h" unicode="h"/><glyph d="M0 700h100v-100h-100v100zM0 500h100v-500h-100v500z" glyph-name="i" horiz-adv-x="200" unicode="i"/><glyph d="M200 700v-100h-200v100h200zM0 500h100v-500h-100v500z" glyph-name="iacute" horiz-adv-x="300" unicode="í"/><glyph d="M100 700v-100h-100v100h100zM200 700h100v-100h-100v100zM100 500h100v-500h-100v500z" glyph-name="icircumflex" horiz-adv-x="400" unicode="î"/><glyph d="M400 700h100v-100h-100v100zM400 500h100v-500h-100v500zM0 100h100v-100h-100v100zM400 0v-100h-300v100h300z" glyph-name="j" unicode="j"/><glyph d="M100 300h100v-100h-100v-200h-100v700h100v-400zM400 500v-100h-100v100h100zM300 400v-100h-100v100h100zM300 100h-100v100h100v-100zM400 0h-100v100h100v-100z" glyph-name="k" horiz-adv-x="500" unicode="k"/><glyph d="M100 100h-100v600h100v-600zM100 100h100v-100h-100v100z" glyph-name="l" horiz-adv-x="300" unicode="l"/><glyph d="M200 500v-100h-100v-400h-100v500h200zM300 500h100v-100h-100v100zM200 400h100v-200h-100v200zM400 400h100v-400h-100v400z" glyph-name="m" unicode="m"/><glyph d="M400 500v-100h-300v-400h-100v500h400zM400 400h100v-400h-100v400z" glyph-name="n" unicode="n"/><glyph d="M500 700v-100h-500v100h500zM400 500v-100h-300v-400h-100v500h400zM400 400h100v-400h-100v400z" glyph-name="ntilde" unicode="ñ"/><glyph d="M100 400v100h300v-100h-300zM100 100h-100v300h100v-300zM400 400h100v-300h-100v300zM400 100v-100h-300v100h300z" glyph-name="o" unicode="o"/><glyph d="M500 700v-100h-200v100h200zM100 400v100h300v-100h-300zM100 100h-100v300h100v-300zM400 400h100v-300h-100v300zM400 100v-100h-300v100h300z" glyph-name="oacute" unicode="ó"/><glyph d="M100 600v100h300v-100h-300zM0 600h100v-100h-100v100zM500 500h-100v100h100v-100zM400 500v-100h-300v100h300zM100 100h-100v300h100v-300zM400 400h100v-300h-100v300zM400 100v-100h-300v100h300z" glyph-name="ocircumflex" unicode="ô"/><glyph d="M200 700v-100h-100v100h100zM400 700v-100h-100v100h100zM100 400v100h300v-100h-300zM100 100h-100v300h100v-300zM400 400h100v-300h-100v300zM400 100v-100h-300v100h300z" glyph-name="odieresis" unicode="ö"/><glyph d="M200 600h-200v100h200v-100zM100 400v100h300v-100h-300zM100 100h-100v300h100v-300zM400 400h100v-300h-100v300zM400 100v-100h-300v100h300z" glyph-name="ograve" unicode="ò"/><glyph d="M400 400h100v-300h-100v200h-100v100h-200v100h300v-100zM200 100h200v-100h-100v-100h-100v100h-100v100h-100v300h100v-200h100v-100zM200 200v100h100v-100h-100z" glyph-name="oslash" unicode="ø"/><glyph d="M400 200v-100h-300v-200h-100v600h100v-100h100v-100h-100v-100h300zM400 400h-200v100h200v-100zM400 400h100v-200h-100v200z" glyph-name="p" unicode="p"/><glyph d="M400 500h100v-600h-100v200h-300v100h300v100h-100v100h100v100zM300 400h-200v100h200v-100zM100 400v-200h-100v200h100z" glyph-name="q" unicode="q"/><glyph d="M100 500v-100h100v-100h-100v-300h-100v500h100zM400 500v-100h-200v100h200zM400 400h100v-100h-100v100z" glyph-name="r" unicode="r"/><glyph d="M100 400v100h400v-100h-400zM0 400h100v-100h-100v100zM100 200v100h300v-100h-300zM500 100h-100v100h100v-100zM400 100v-100h-400v100h400z" glyph-name="s" unicode="s"/><glyph d="M200 100h-100v300h-100v100h100v200h100v-200h100v-100h-100v-300zM300 0h-100v100h100v-100z" glyph-name="t" horiz-adv-x="400" unicode="t"/><glyph d="M100 100h-100v400h100v-400zM400 500h100v-500h-400v100h300v400z" glyph-name="u" unicode="u"/><glyph d="M500 700v-100h-200v100h200zM100 100h-100v400h100v-400zM400 500h100v-500h-400v100h300v400z" glyph-name="uacute" unicode="ú"/><glyph d="M400 700v-100h-300v100h300zM0 500v100h100v-100h-100zM400 600h100v-100h-100v100zM100 100h-100v300h100v-300zM400 400h100v-400h-400v100h300v300z" glyph-name="ucircumflex" unicode="û"/><glyph d="M200 700v-100h-100v100h100zM400 700v-100h-100v100h100zM100 100h-100v400h100v-400zM400 500h100v-500h-400v100h300v400z" glyph-name="udieresis" unicode="ü"/><glyph d="M200 600h-200v100h200v-100zM100 100h-100v400h100v-400zM400 500h100v-500h-400v100h300v400z" glyph-name="ugrave" unicode="ù"/><glyph d="M100 200h-100v300h100v-300zM400 500h100v-300h-100v300zM100 200h100v-100h-100v100zM300 100v100h100v-100h-100zM200 0v100h100v-100h-100z" glyph-name="v" unicode="v"/><glyph d="M100 100h-100v400h100v-400zM400 500h100v-500h-400v100h100v200h100v-200h100v400z" glyph-name="w" unicode="w"/><glyph d="M0 400v100h100v-100h-100zM400 400v100h100v-100h-100zM100 300v100h100v-100h-100zM300 300v100h100v-100h-100zM200 200v100h100v-100h-100zM100 100v100h100v-100h-100zM300 100v100h100v-100h-100zM0 0v100h100v-100h-100zM400 0v100h100v-100h-100z" glyph-name="x" unicode="x"/><glyph d="M100 200h-100v300h100v-300zM400 500h100v-500h-100v100h-300v100h300v300zM400 0v-100h-400v100h400z" glyph-name="y" unicode="y"/><glyph d="M200 700v-100h-100v100h100zM400 700v-100h-100v100h100zM100 200h-100v300h100v-300zM400 500h100v-500h-100v100h-300v100h300v300zM400 0v-100h-400v100h400z" glyph-name="ydieresis" unicode="ÿ"/><glyph d="M400 400v-100h-100v100h-300v100h500v-100h-100zM300 300v-100h-100v100h100zM100 200h100v-100h300v-100h-500v100h100v100z" glyph-name="z" unicode="z"/><glyph d="M100 600v100h300v-100h-300zM200 200h-100v-100h-100v500h100v-300h100v-100zM400 600h100v-500h-100v300h-100v100h100v100zM200 300v100h100v-100h-100zM400 100v-100h-300v100h300z" glyph-name="zero" unicode="0"/><glyph d="M500 100v-100h-500v100h200v400h-100v100h100v100h100v-600h200z" glyph-name="one" unicode="1"/><glyph d="M400 700v-100h-300v100h300zM0 500v100h100v-100h-100zM400 600h100v-200h-100v200zM200 400h200v-100h-200v100zM100 200v100h100v-100h-100zM0 200h100v-100h300v100h100v-200h-500v200z" glyph-name="two" unicode="2"/><glyph d="M400 700v-100h-300v100h300zM0 500v100h100v-100h-100zM400 600h100v-200h-100v200zM200 400h200v-100h-200v100zM400 100v200h100v-200h-100zM0 200h100v-100h-100v100zM400 100v-100h-300v100h300z" glyph-name="three" unicode="3"/><glyph d="M500 700v-700h-100v200h-400v200h100v-100h300v300h-100v100h200zM300 600v-100h-100v100h100zM200 500v-100h-100v100h100z" glyph-name="four" unicode="4"/><glyph d="M100 600v-100h300v-100h-400v300h500v-100h-400zM400 400h100v-300h-100v300zM0 200h100v-100h-100v100zM400 100v-100h-300v100h300z" glyph-name="five" unicode="5"/><glyph d="M400 600h-200v100h200v-100zM200 600v-100h-100v100h100zM100 300v-200h-100v400h100v-100h300v-100h-300zM400 300h100v-200h-100v200zM400 100v-100h-300v100h300z" glyph-name="six" unicode="6"/><glyph d="M500 700v-300h-100v200h-300v-100h-100v200h500zM300 300v100h100v-100h-100zM200 300h100v-300h-100v300z" glyph-name="seven" unicode="7"/><glyph d="M100 600v100h300v-100h-300zM100 600v-200h-100v200h100zM400 600h100v-200h-100v200zM400 400v-100h-300v100h300zM100 300v-200h-100v200h100zM400 100v200h100v-200h-100zM400 100v-100h-300v100h300z" glyph-name="eight" unicode="8"/><glyph d="M100 600v100h300v-100h-300zM100 600v-200h-100v200h100zM400 600h100v-400h-100v100h-300v100h300v200zM300 100v100h100v-100h-100zM100 100h200v-100h-200v100z" glyph-name="nine" unicode="9"/><glyph d="M0 200h100v-200h-100v200z" glyph-name="period" horiz-adv-x="200" unicode="."/><glyph d="M0 200h100v-300h-100v300z" glyph-name="comma" horiz-adv-x="200" unicode=","/><glyph d="M0 600h100v-200h-100v200zM0 200h100v-200h-100v200z" glyph-name="colon" horiz-adv-x="200" unicode=":"/><glyph d="M0 600h100v-200h-100v200zM0 200h100v-300h-100v300z" glyph-name="semicolon" horiz-adv-x="200" unicode=";"/><glyph d="M0 700h100v-500h-100v500zM0 0v100h100v-100h-100z" glyph-name="exclam" horiz-adv-x="200" unicode="!"/><glyph d="M0 600h100v-100h-100v100zM0 400h100v-400h-100v400z" glyph-name="exclamdown" horiz-adv-x="200" unicode="¡"/><glyph d="M400 700v-100h-300v100h300zM0 500v100h100v-100h-100zM400 600h100v-200h-100v200zM300 300v100h100v-100h-100zM200 200v100h100v-100h-100zM200 0v100h100v-100h-100z" glyph-name="question" unicode="?"/><glyph d="M300 700v-100h-100v100h100zM300 500v-100h-100v100h100zM200 400v-100h-100v100h100zM100 300v-200h-100v200h100zM400 200h100v-100h-100v100zM400 100v-100h-300v100h300z" glyph-name="questiondown" unicode="¿"/><glyph d="M200 400v-200h-200v200h200z" glyph-name="periodcentered" horiz-adv-x="300" unicode="·"/><glyph d="M200 400v-200h-200v200h200z" glyph-name="bullet" horiz-adv-x="300" unicode="•"/><glyph d="M0 500h100v-100h-100v100zM400 500v-100h-100v100h100zM300 400v-100h-200v100h200zM0 200v100h100v-100h-100zM400 200h-100v100h100v-100z" glyph-name="asterisk" horiz-adv-x="500" unicode="*"/><glyph d="M500 400h-100v-100h100v-100h-100v-200h-100v200h-100v-200h-100v200h-100v100h100v100h-100v100h100v200h100v-200h100v200h100v-200h100v-100zM300 300v100h-100v-100h100z" glyph-name="numbersign" unicode="#"/><glyph d="M400 700h100v-100h-100v100zM300 600h100v-200h-100v200zM200 300v100h100v-100h-100zM100 300h100v-200h-100v200zM0 0v100h100v-100h-100z" glyph-name="slash" unicode="/"/><glyph d="M0 700h100v-100h-100v100zM200 600v-200h-100v200h100zM200 400h100v-100h-100v100zM400 300v-200h-100v200h100zM400 100h100v-100h-100v100z" glyph-name="backslash" unicode="\"/><glyph d="M400 600h-200v100h200v-100zM200 600v-100h-100v100h100zM100 200h-100v300h100v-300zM200 100h-100v100h100v-100zM200 0v100h200v-100h-200z" glyph-name="parenleft" horiz-adv-x="500" unicode="("/><glyph d="M200 700v-100h-200v100h200zM200 600h100v-100h-100v100zM300 500h100v-300h-100v300zM200 100v100h100v-100h-100zM0 100h200v-100h-200v100z" glyph-name="parenright" horiz-adv-x="500" unicode=")"/><glyph d="M400 600h-200v100h200v-100zM200 400h-100v200h100v-200zM0 400h100v-100h-100v100zM100 100v200h100v-200h-100zM200 0v100h200v-100h-200z" glyph-name="braceleft" horiz-adv-x="500" unicode="{"/><glyph d="M200 700v-100h-200v100h200zM300 600v-200h-100v200h100zM300 400h100v-100h-100v100zM200 300h100v-200h-100v200zM0 100h200v-100h-200v100z" glyph-name="braceright" horiz-adv-x="500" unicode="}"/><glyph d="M100 100h200v-100h-300v700h300v-100h-200v-500z" glyph-name="bracketleft" horiz-adv-x="400" unicode="["/><glyph d="M300 700v-700h-300v100h200v500h-200v100h300z" glyph-name="bracketright" horiz-adv-x="400" unicode="]"/><glyph d="M500 400v-100h-500v100h500z" glyph-name="hyphen" unicode="-"/><glyph d="M200 400v-100h-200v100h200z" glyph-name="uni00AD" horiz-adv-x="300" unicode="­"/><glyph d="M500 400v-100h-500v100h500z" glyph-name="emdash" unicode="—"/><glyph d="M500 0v-100h-500v100h500z" glyph-name="underscore" unicode="_"/><glyph d="M200 400v100h100v-100h-100zM400 400v100h100v-100h-100zM100 300v100h100v-100h-100zM300 300v100h100v-100h-100zM0 200v100h100v-100h-100zM200 200v100h100v-100h-100zM100 100v100h100v-100h-100zM300 100v100h100v-100h-100zM200 0v100h100v-100h-100zM400 0v100 h100v-100h-100z" glyph-name="guillemotleft" unicode="«"/><glyph d="M0 400v100h100v-100h-100zM200 400v100h100v-100h-100zM100 300v100h100v-100h-100zM300 300v100h100v-100h-100zM200 200v100h100v-100h-100zM400 200v100h100v-100h-100zM100 100v100h100v-100h-100zM300 100v100h100v-100h-100zM0 0v100h100v-100h-100zM200 0v100h100 v-100h-100z" glyph-name="guillemotright" unicode="»"/><glyph d="M200 700v-200h-100v200h100zM300 700h100v-200h-100v200zM0 400v100h100v-100h-100zM200 400v100h100v-100h-100z" glyph-name="quotedbl" horiz-adv-x="500" unicode="&quot;"/><glyph d="M100 700h100v-200h-100v200zM0 400v100h100v-100h-100z" glyph-name="quotesingle" horiz-adv-x="300" unicode="'"/><glyph glyph-name="space" horiz-adv-x="400"/><glyph d="M100 300v100h100v100h100v-100h100v-100h-300zM0 300h100v-100h-100v100zM200 100h-100v100h300v-100h-100v-100h-100v100z" glyph-name="cent" horiz-adv-x="500" unicode="¢"/><glyph d="M0 400v100h100v-100h-100zM200 400v100h100v-100h-100zM100 300v100h100v-100h-100zM0 200v100h100v-100h-100zM200 200v100h100v-100h-100z" glyph-name="currency" horiz-adv-x="400" unicode="¤"/><glyph d="M100 500v100h100v100h100v-100h200v-100h-400zM0 500h100v-100h-100v100zM100 300v100h300v-100h-300zM500 200h-100v100h100v-100zM400 200v-100h-100v-100h-100v100h-200v100h400z" glyph-name="dollar" unicode="$"/><glyph d="M300 700h100v-100h-100v100zM200 600h100v-200h100v-100h-100v-200h-100v200h-100v100h100v200zM400 600h100v-100h-100v100zM0 200h100v-100h-100v100zM100 0v100h100v-100h-100z" glyph-name="florin" unicode="ƒ"/><glyph d="M400 700v-100h-200v100h200zM100 600h100v-200h200v-100h-200v-200h300v-100h-500v100h100v200h-100v100h100v200zM500 500h-100v100h100v-100z" glyph-name="sterling" unicode="£"/><glyph d="M500 400v-100h-200v-200h-100v200h-200v100h200v200h100v-200h200z" glyph-name="plus" unicode="+"/><glyph d="M300 600v-100h-100v100h100zM500 400v-100h-500v100h500zM200 100v100h100v-100h-100z" glyph-name="divide" unicode="÷"/><glyph d="M500 500v-100h-500v100h500zM500 200v-100h-500v100h500z" glyph-name="equal" unicode="="/><glyph d="M0 600v100h100v-100h-100zM100 500v100h100v-100h-100zM200 400v100h100v-100h-100zM300 300v100h100v-100h-100zM200 200v100h100v-100h-100zM100 100v100h100v-100h-100zM0 0v100h100v-100h-100z" glyph-name="greater" horiz-adv-x="500" unicode="&gt;"/><glyph d="M300 600v100h100v-100h-100zM200 500v100h100v-100h-100zM100 400v100h100v-100h-100zM0 300v100h100v-100h-100zM100 200v100h100v-100h-100zM200 100v100h100v-100h-100zM300 0v100h100v-100h-100z" glyph-name="less" horiz-adv-x="500" unicode="&lt;"/><glyph d="M500 500v-100h-200v-200h-100v200h-200v100h200v200h100v-200h200zM500 100v-100h-500v100h500z" glyph-name="plusminus" unicode="±"/><glyph d="M300 700v-100h-200v100h200zM500 700h100v-100h-100v100zM0 500v100h100v-100h-100zM300 600h200v-100h-200v100z" glyph-name="asciitilde" horiz-adv-x="700" unicode="~"/><glyph d="M500 300v-200h-100v100h-400v100h500z" glyph-name="logicalnot" unicode="¬"/><glyph d="M100 500h-100v200h100v-200zM400 700h100v-100h-100v100zM300 600h100v-200h-100v200zM200 300v100h100v-100h-100zM100 300h100v-200h-100v200zM400 200h100v-200h-100v200zM0 0v100h100v-100h-100z" glyph-name="percent" unicode="%"/><glyph d="M500 700v-100h-400v100h400zM0 600h100v-500h-100v500zM500 600h100v-400h-400v300h200v-200h100v300zM100 0v100h400v-100h-400z" glyph-name="at" horiz-adv-x="700" unicode="@"/><glyph d="M300 700v-100h-100v100h100zM100 600h100v-100h-100v100zM400 500h-100v100h100v-100zM400 300v-200h-100v100h-100v100h-100v100h100v100h100v-200h100zM500 400v-100h-100v100h100zM100 300v-200h-100v200h100zM100 100h200v-100h-200v100zM500 0h-100v100h100v-100z" glyph-name="ampersand" unicode="&amp;"/><glyph d="M600 700v-700h-100v600h-100v-600h-100v300h-200v100h200v200h-200v100h500zM100 600v-200h-100v200h100z" glyph-name="paragraph" horiz-adv-x="700" unicode="¶"/><glyph d="M100 600v100h400v-100h-400zM0 600h100v-100h-100v100zM100 400v100h300v-100h-300zM0 400h100v-100h-100v100zM500 300h-100v100h100v-100zM400 300v-100h-300v100h300zM500 100h-100v100h100v-100zM400 100v-100h-400v100h400z" glyph-name="section" unicode="§"/><glyph d="M200 400h-100v100h400v-100h-100v-100h-100v-100h-100v200zM400 200v-100h100v-100h-400v100h-100v300h100v-200h100v-100h100v100h100zM500 400h100v-300h-100v300z" glyph-name="registered" horiz-adv-x="700" unicode="®"/><glyph d="M0 700h100v-300h-100v300zM0 300h100v-300h-100v300z" glyph-name="bar" horiz-adv-x="200" unicode="|"/><glyph d="M200 600v100h100v-100h-100zM100 500v100h100v-100h-100zM300 500v100h100v-100h-100zM0 400v100h100v-100h-100zM400 400v100h100v-100h-100z" glyph-name="asciicircum" unicode="^"/><glyph d="M200 0h100v-100h-100v100zM0 -100h200v-100h-200v100z" glyph-name="cedilla" horiz-adv-x="400" unicode="¸"/></font>
</defs>
</svg>
